<svg xmlns="http://www.w3.org/2000/svg" viewBox="0 0 24 24">
  <path
    fill="#000000"
    d="M19.14 12.94c.04-.31.06-.63.06-.94 0-.31-.02-.63-.06-.94l2.03-1.58a.49.49 0 0 0 .12-.61l-1.92-3.32a.49.49 0 0 0-.59-.22l-2.39.96a7.002 7.002 0 0 0-1.63-.94l-.36-2.54A.49.49 0 0 0 14 2h-4a.49.49 0 0 0-.49.42l-.36 2.54a7.002 7.002 0 0 0-1.63.94l-2.39-.96a.49.49 0 0 0-.59.22L2.62 8.72a.49.49 0 0 0 .12.61l2.03 1.58c-.04.31-.06.63-.06.94 0 .31.02.63.06.94l-2.03 1.58a.49.49 0 0 0-.12.61l1.92 3.32a.49.49 0 0 0 .59.22l2.39-.96c.5.38 1.04.7 1.63.94l.36 2.54A.49.49 0 0 0 10 22h4a.49.49 0 0 0 .49-.42l.36-2.54c.59-.24 1.13-.56 1.63-.94l2.39.96a.49.49 0 0 0 .59-.22l1.92-3.32a.49.49 0 0 0-.12-.61l-2.03-1.58zM12 15.5A3.5 3.5 0 1 1 15.5 12 3.5 3.5 0 0 1 12 15.5z"
  />
</svg>
